<svg id="Layer_1" data-name="Layer 1" xmlns="http://www.w3.org/2000/svg" viewBox="0 0 580.98 582"><defs><style>.cls-1{fill:#193a65;}.cls-2{fill:#79c471;}.cls-3{fill:#c9e2fb;}</style></defs><polygon class="cls-1" points="26.25 211.89 7.2 388.07 573.84 176.18 580.98 0 26.25 211.89"/><polygon class="cls-2" points="19.05 405.82 0 582 566.64 370.11 573.78 193.93 19.05 405.82"/><path class="cls-3" d="M146.92,266.63a1.22,1.22,0,0,1,.79-1.77L167,257.57c7.53-2.85,13.09-.28,15.94,7.25l15.52,41c2.86,7.53.37,13.06-7.17,15.91L172,329a1.2,1.2,0,0,1-1.77-.8ZM185,312c2.08-.79,2.81-2.25,2-4.42l-13.82-36.47c-.82-2.16-2.36-2.86-4.45-2.07l-7.37,2.8,16.28,43Z" transform="translate(-97.49 -9)"/><path class="cls-3" d="M222,247.34a1.25,1.25,0,0,1-.77,1.85l-20,7.59,6.07,16,15.31-5.8a1.28,1.28,0,0,1,1.79.88l3,7.94a1.27,1.27,0,0,1-.76,1.84l-15.31,5.8,6.13,16.19,20-7.59c1-.36,1.43-.08,1.77.8l3,8a1.19,1.19,0,0,1-.79,1.77L212,313.83a1.25,1.25,0,0,1-1.69-.83L187,251.45a1.24,1.24,0,0,1,.72-1.74l29.49-11.18a1.19,1.19,0,0,1,1.77.8Z" transform="translate(-97.49 -9)"/><path class="cls-3" d="M269.78,218.61a1.54,1.54,0,0,1,2.21,1l23.08,60.91a1.54,1.54,0,0,1-1,2.21l-7.45,2.83a1.55,1.55,0,0,1-2.21-1l-13.66-36.07-.57.22,5.8,39.23a1.79,1.79,0,0,1-1.22,2.11l-3.93,1.49a1.79,1.79,0,0,1-2.31-.78l-21.66-33.22-.56.21L260,293.82a1.54,1.54,0,0,1-1,2.21l-7.37,2.8a1.54,1.54,0,0,1-2.21-1l-23.08-60.91a1.53,1.53,0,0,1,1-2.21l10.58-4a1.77,1.77,0,0,1,2.31.77l24,36.55L258,224.73a1.77,1.77,0,0,1,1.21-2.11Z" transform="translate(-97.49 -9)"/><path class="cls-3" d="M332.23,268.28a1.32,1.32,0,0,1-1.71-.64l-6.68-10.85-14.27,5.4,2.27,12.53a1.3,1.3,0,0,1-.85,1.6l-8.58,3.25c-.88.34-1.46,0-1.56-1l-10-66.68a1.33,1.33,0,0,1,.93-1.64l11.14-4.22a1.34,1.34,0,0,1,1.79.61l36.66,56.59c.49.82.35,1.42-.61,1.79Zm-29.64-46.06,5.47,29.92,10.26-3.89Z" transform="translate(-97.49 -9)"/><path class="cls-3" d="M356.91,185.6a1.26,1.26,0,0,1,1.76.8L382,248a1.26,1.26,0,0,1-.8,1.76l-7.94,3a1.46,1.46,0,0,1-1.83-.5L346.2,222.66l-.4.15,12.87,34a1.22,1.22,0,0,1-.79,1.77l-8.34,3.16a1.27,1.27,0,0,1-1.77-.8l-23.32-61.55a1.27,1.27,0,0,1,.8-1.77l7.93-3a1.49,1.49,0,0,1,1.84.5l25.09,29.45.48-.19-12.82-33.82a1.23,1.23,0,0,1,.8-1.77Z" transform="translate(-97.49 -9)"/><path class="cls-3" d="M366.69,183.36a1.21,1.21,0,0,1,.8-1.76l19.23-7.29c7.54-2.86,13.09-.29,15.95,7.25l15.51,40.95c2.86,7.54.37,13.06-7.17,15.92l-19.23,7.29a1.2,1.2,0,0,1-1.77-.8Zm38.07,45.34c2.09-.79,2.81-2.26,2-4.42l-13.81-36.47c-.82-2.16-2.37-2.86-4.45-2.07l-7.38,2.79,16.28,43Z" transform="translate(-97.49 -9)"/><path class="cls-3" d="M470.4,142.61a1.54,1.54,0,0,1,2.21,1l23.08,60.92a1.55,1.55,0,0,1-1,2.21l-7.45,2.82a1.54,1.54,0,0,1-2.21-1l-13.67-36.06-.56.21,5.79,39.23a1.77,1.77,0,0,1-1.21,2.11l-3.93,1.49a1.77,1.77,0,0,1-2.31-.77l-21.66-33.22-.56.21,13.66,36.07a1.53,1.53,0,0,1-1,2.21l-7.37,2.79a1.54,1.54,0,0,1-2.21-1l-23.08-60.91a1.54,1.54,0,0,1,1-2.21l10.58-4a1.79,1.79,0,0,1,2.31.78l24,36.54-6.23-43.28a1.8,1.8,0,0,1,1.22-2.12Z" transform="translate(-97.49 -9)"/><path class="cls-3" d="M484.39,150.5c-2.85-7.53-.37-13.06,7.17-15.91l9-3.4c7.53-2.86,13.05-.37,15.91,7.17l15.55,41c2.85,7.54.36,13.06-7.17,15.92l-9,3.4c-7.53,2.85-13.06.36-15.91-7.17Zm34.52,35.23c2.08-.79,2.81-2.26,2-4.42l-14-37a3.07,3.07,0,0,0-4.42-2l-4.65,1.76a3.08,3.08,0,0,0-2,4.42l14,37c.82,2.16,2.33,2.78,4.42,2Z" transform="translate(-97.49 -9)"/><path class="cls-3" d="M564.82,142.4c2,5.37,1.36,9.65-1.85,12.79l13.49,18.91a1.1,1.1,0,0,1-.58,1.86l-8.33,3.16a1.34,1.34,0,0,1-1.79-.6l-13.08-18.33-5.53,2.1,7.65,20.2a1.26,1.26,0,0,1-.8,1.76l-8.33,3.16a1.26,1.26,0,0,1-1.77-.79l-23.32-61.56a1.26,1.26,0,0,1,.79-1.77l20.12-7.62c7.54-2.85,13.06-.36,15.92,7.17Zm-13.75,6.3a3.07,3.07,0,0,0,2-4.42l-5.7-15.07a3.09,3.09,0,0,0-4.43-2l-7.93,3,8.14,21.48Z" transform="translate(-97.49 -9)"/><path class="cls-3" d="M596.55,105.44a1.25,1.25,0,0,1-.77,1.85l-20,7.59,6.07,16,15.31-5.8a1.3,1.3,0,0,1,1.8.88l3,7.93a1.28,1.28,0,0,1-.76,1.85l-15.31,5.8L592,157.76l20-7.59c1-.36,1.43-.08,1.77.8l3,8a1.19,1.19,0,0,1-.79,1.77l-29.5,11.18a1.25,1.25,0,0,1-1.69-.83l-23.32-61.56a1.24,1.24,0,0,1,.72-1.73l29.49-11.18a1.19,1.19,0,0,1,1.77.8Z" transform="translate(-97.49 -9)"/><path class="cls-1" d="M257.65,406a1.23,1.23,0,0,1,.8-1.77l8.33-3.15a1.26,1.26,0,0,1,1.77.79L288,453.15c2.86,7.53.29,13.09-7.16,15.91l-9,3.4c-7.54,2.86-13.06.37-15.92-7.17L252.77,457a1.22,1.22,0,0,1,.79-1.77l8-3a1.27,1.27,0,0,1,1.77.8l2.3,6.09a3.07,3.07,0,0,0,4.42,2l4.17-1.57a3.08,3.08,0,0,0,2-4.43Z" transform="translate(-97.49 -9)"/><path class="cls-1" d="M306.54,386a1.72,1.72,0,0,1,2.21,1l19.31,51c2.85,7.53.36,13.06-7.17,15.91l-9,3.4c-7.53,2.85-13.06.37-15.91-7.17l-19.31-51a1.71,1.71,0,0,1,1-2.21l7.7-2.92a1.73,1.73,0,0,1,2.21,1l18.46,48.73c.82,2.16,2.34,2.78,4.42,2l4.17-1.58c2.08-.79,2.81-2.26,2-4.42L298.17,391a1.71,1.71,0,0,1,1-2.21Z" transform="translate(-97.49 -9)"/><path class="cls-1" d="M347.34,431.76l19.08-7.23a1.22,1.22,0,0,1,1.76.8l3,8a1.19,1.19,0,0,1-.8,1.76L341.73,446a1.22,1.22,0,0,1-1.77-.79l-23.32-61.56a1.26,1.26,0,0,1,.8-1.76l8.33-3.16a1.22,1.22,0,0,1,1.77.79Z" transform="translate(-97.49 -9)"/><path class="cls-1" d="M380.91,357.82c1.21-.46,2,.05,2,1.35l-1.16,41.23,9.48,25a1.54,1.54,0,0,1-1,2.21l-7.69,2.92a1.54,1.54,0,0,1-2.21-1l-9.48-25-28.18-30.11c-.91-.94-.62-1.88.58-2.33l8-3a1.87,1.87,0,0,1,2.33.59l17.69,19.6.26-26.41a1.88,1.88,0,0,1,1.36-2Z" transform="translate(-97.49 -9)"/><path class="cls-1" d="M442.15,334.62c1.28-.49,1.9.19,1.93,1.46l-.36,69.7a1.85,1.85,0,0,1-1.35,2L434.06,411c-1.2.46-2-.08-2-1.36l.24-59.11-19,7.2a1.26,1.26,0,0,1-1.77-.8l-3-8a1.33,1.33,0,0,1,.77-1.85Z" transform="translate(-97.49 -9)"/><path class="cls-1" d="M482.13,328.63a1.23,1.23,0,0,1,1.77.8l3,8a1.23,1.23,0,0,1-.8,1.77l-9.3,3.52L493.61,387a1.2,1.2,0,0,1-.8,1.77l-8.34,3.15a1.21,1.21,0,0,1-1.76-.79l-16.77-44.25-9.29,3.53a1.27,1.27,0,0,1-1.77-.8l-3-8a1.26,1.26,0,0,1,.8-1.76Z" transform="translate(-97.49 -9)"/><path class="cls-1" d="M511.47,319a1.27,1.27,0,0,1,.8-1.77l8.26-3.12a1.24,1.24,0,0,1,1.84.76l20.29,53.54a1.26,1.26,0,0,1-.88,1.8l-8.25,3.13a1.26,1.26,0,0,1-1.77-.8l-8.08-21.32-10.26,3.89,8.08,21.32a1.27,1.27,0,0,1-.8,1.77l-8.25,3.12a1.25,1.25,0,0,1-1.85-.76L490.31,327a1.26,1.26,0,0,1,.88-1.8l8.26-3.13a1.26,1.26,0,0,1,1.76.8l8.2,21.64,10.26-3.89Z" transform="translate(-97.49 -9)"/></svg>
